# xmcd
#
# Track frame offsets:
#	150
#	24723
#	36719
#	58714
#	78761
#	117799
#	137795
#	176440
#	194412
#	223885
#	232946
#	269946
#	290780
#	303395
#	320527
#
# Disc length: 4552 seconds
#
# Revision: 1
# Processed by: cddbd v1.5.2PL0 Copyright (c) Steve Scherf et al.
# Submitted via: audiograbber 1.83.01
#
DISCID=eb11c60f
DTITLE=Various Artist - Blue Note Trip Tease vol. 2 - cd 2
DYEAR=2008
DGENRE=Jazz
TTITLE0=Pete La Roca - Lazy Afternoon
TTITLE1=Sheila Jordan - Dat Dere
TTITLE2=Duke Pearson - Sweet Honey Bee
TTITLE3=Alice Ricciardi - Comes Love
TTITLE4=Lee Morgan - Hasaan's Dream
TTITLE5=Charlie Hunter feat. Norah Jones - Day Is Done
TTITLE6=Kenny Cox - Diahnn
TTITLE7=Julie London - So In Love
TTITLE8=Lee Morgan - The Sixth Sense
TTITLE9=Nancy Wilson - The Sweetest Sounds
TTITLE10=Donald Byrd - Here I Am
TTITLE11=Lou Rawls - St. James Infirmary
TTITLE12=Stan Kenton - Lonely Boy
TTITLE13=Minnie Riperton - Every Time He Comes Around
TTITLE14=Ike And Tina Turner - Whole Lotta Love
EXTD=YEAR: 2008
EXTT0=
EXTT1=
EXTT2=
EXTT3=
EXTT4=
EXTT5=
EXTT6=
EXTT7=
EXTT8=
EXTT9=
EXTT10=
EXTT11=
EXTT12=
EXTT13=
EXTT14=
PLAYORDER=
